<svg width="12" height="12" viewBox="0 0 12 12" fill="none" xmlns="http://www.w3.org/2000/svg">
<path d="M10.1309 5.85075C10.5479 5.4555 10.9079 5.00025 11.1974 4.5H10.3086C9.35987 5.8605 7.78338 6.75 5.99988 6.75C4.21638 6.75 2.63987 5.8605 1.69037 4.5H0.802375C1.09188 5.00025 1.45187 5.4555 1.86812 5.85075L0.671875 7.047L1.20287 7.57725L2.44487 6.3345C2.97737 6.72675 3.57812 7.0335 4.22537 7.23375L3.76263 8.8995L4.48563 9.1005L4.95512 7.40925C5.29487 7.47 5.64363 7.5 5.99988 7.5C6.35613 7.5 6.70488 7.46925 7.04388 7.41L7.51337 9.1005L8.23638 8.8995L7.77362 7.23375C8.42087 7.0335 9.02088 6.72675 9.55413 6.33375L10.7969 7.57725L11.3279 7.047L10.1316 5.85075H10.1309Z" fill="black"/>
</svg>
